<svg width="24" height="24" viewBox="0 0 24 24" fill="none" xmlns="http://www.w3.org/2000/svg">
<path d="M20 4C21.1046 4 22 4.89543 22 6V18C22 19.1046 21.1046 20 20 20H4C2.89543 20 2 19.1046 2 18V6C2 4.89543 2.89543 4 4 4H20ZM4 11V18H20V11H4ZM4 8H20V6H4V8Z" fill="white" fill-opacity="0.7"/>
<path d="M4 10.5H3.5V11V18V18.5H4H20H20.5V18V11V10.5H20H4ZM3.5 8V8.5H4H20H20.5V8V6V5.5H20H4H3.5V6V8ZM20 4.5C20.8284 4.5 21.5 5.17157 21.5 6V18C21.5 18.8284 20.8284 19.5 20 19.5H4C3.17157 19.5 2.5 18.8284 2.5 18V6C2.5 5.17157 3.17157 4.5 4 4.5H20Z" stroke="white" stroke-opacity="0.7"/>
</svg>
