<svg width="502" height="234" viewBox="0 0 502 234" fill="none" xmlns="http://www.w3.org/2000/svg">
<rect width="502" height="234" rx="16" fill="#DDE4F8"/>
<path opacity="0.15" fill-rule="evenodd" clip-rule="evenodd" d="M295.337 116.176C302.202 108.712 306.394 98.7508 306.394 87.8104C306.394 64.6621 287.628 45.8967 264.48 45.8967C247.065 45.8967 232.131 56.5172 225.802 71.6346C224.731 71.5718 223.652 71.54 222.566 71.54C192.507 71.54 168.14 95.9076 168.14 125.967C168.14 156.026 192.507 180.393 222.566 180.393C238.065 180.393 252.051 173.915 261.963 163.519C267.271 168.787 274.581 172.041 282.65 172.041C298.87 172.041 312.02 158.892 312.02 142.671C312.02 130.995 305.206 120.91 295.337 116.176Z" fill="#0D3ECC"/>
<path fill-rule="evenodd" clip-rule="evenodd" d="M212.862 72.0272C214.001 71.2113 215.5 71.1348 216.752 71.7623C222.743 74.7631 230.003 71.7562 232.117 65.3981C232.56 64.0653 233.677 63.0572 235.062 62.8289C237.893 62.3626 240.799 62.12 243.762 62.12C246.724 62.12 249.629 62.3624 252.459 62.8286C253.845 63.0568 254.962 64.0651 255.405 65.3981C257.52 71.7562 264.779 74.7631 270.77 71.7623C272.023 71.1345 273.522 71.211 274.662 72.0273C279.408 75.4276 283.572 79.5907 286.972 84.3373C287.788 85.4769 287.865 86.9763 287.237 88.2297C284.236 94.2206 287.243 101.48 293.601 103.594C294.935 104.038 295.943 105.155 296.172 106.541C296.638 109.371 296.88 112.276 296.88 115.238C296.88 118.2 296.638 121.106 296.172 123.936C295.943 125.322 294.935 126.439 293.601 126.883C287.243 128.997 284.236 136.256 287.237 142.247C287.865 143.5 287.788 145 286.972 146.139C283.572 150.886 279.408 155.049 274.662 158.449C273.522 159.266 272.023 159.342 270.77 158.714C264.779 155.714 257.52 158.72 255.405 165.079C254.962 166.412 253.845 167.42 252.459 167.648C249.629 168.114 246.724 168.357 243.762 168.357C240.799 168.357 237.893 168.114 235.062 167.648C233.677 167.419 232.56 166.411 232.117 165.079C230.003 158.72 222.743 155.714 216.752 158.714C215.5 159.342 214.001 159.265 212.862 158.45C208.115 155.048 203.951 150.884 200.55 146.137C199.734 144.998 199.658 143.5 200.285 142.247C203.286 136.256 200.279 128.997 193.921 126.883C192.589 126.439 191.581 125.323 191.352 123.938C190.886 121.107 190.644 118.201 190.644 115.238C190.644 112.276 190.886 109.369 191.352 106.539C191.581 105.153 192.589 104.037 193.921 103.594C200.279 101.48 203.286 94.2206 200.285 88.2297C199.658 86.9772 199.734 85.4788 200.55 84.3399C203.951 79.5922 208.115 75.4282 212.862 72.0272Z" fill="#0F68EE"/>
<path fill-rule="evenodd" clip-rule="evenodd" d="M244.023 151.61C263.966 151.61 280.133 135.443 280.133 115.5C280.133 95.557 263.966 79.39 244.023 79.39C224.08 79.39 207.913 95.557 207.913 115.5C207.913 135.443 224.08 151.61 244.023 151.61ZM244.023 136.957C255.873 136.957 265.48 127.35 265.48 115.5C265.48 103.65 255.873 94.0433 244.023 94.0433C232.173 94.0433 222.566 103.65 222.566 115.5C222.566 127.35 232.173 136.957 244.023 136.957Z" fill="#0C54C0"/>
<path fill-rule="evenodd" clip-rule="evenodd" d="M280.1 117.07C280.122 116.549 280.133 116.026 280.133 115.5C280.133 95.557 263.966 79.39 244.023 79.39C224.08 79.39 207.913 95.557 207.913 115.5C207.913 116.026 207.924 116.549 207.947 117.07C208.769 97.8554 224.606 82.53 244.023 82.53C263.44 82.53 279.278 97.8554 280.1 117.07Z" fill="#3F87F3"/>
<path fill-rule="evenodd" clip-rule="evenodd" d="M223.11 114.772C223.097 115.074 223.09 115.377 223.09 115.682C223.09 127.243 232.463 136.615 244.024 136.615C255.585 136.615 264.957 127.243 264.957 115.682C264.957 115.377 264.951 115.074 264.938 114.772C264.461 125.911 255.28 134.795 244.024 134.795C232.767 134.795 223.586 125.911 223.11 114.772Z" fill="#3F87F3"/>
<path fill-rule="evenodd" clip-rule="evenodd" d="M250.079 104.372C249.846 104.546 249.622 104.739 249.41 104.95L246.906 107.455C244.563 109.798 244.563 113.597 246.906 115.94L247.068 116.102C249.411 118.445 253.21 118.445 255.553 116.102L258.058 113.598C258.285 113.37 258.49 113.129 258.674 112.877L259.73 116.821C260.562 119.927 259.675 123.241 257.401 125.514L253.297 129.618C251.023 131.892 247.709 132.78 244.604 131.948L238.997 130.445C235.892 129.613 233.466 127.187 232.633 124.081L231.131 118.475C230.299 115.369 231.187 112.056 233.461 109.782L237.565 105.678C239.838 103.404 243.152 102.516 246.258 103.349L250.079 104.372Z" fill="#0C54C0"/>
<path d="M236.347 120.233C239.945 120.11 242.895 123.06 242.773 126.659C242.719 128.233 242.069 129.729 240.955 130.843L222.306 149.492C221.192 150.606 219.697 151.256 218.122 151.309C214.523 151.432 211.573 148.482 211.696 144.883C211.75 143.309 212.399 141.813 213.514 140.699L232.162 122.05C233.276 120.936 234.772 120.286 236.347 120.233Z" fill="#0C54C0"/>
<path d="M235.094 117.538C238.693 117.416 241.643 120.366 241.52 123.964C241.466 125.539 240.817 127.034 239.703 128.149L221.054 146.797C219.94 147.911 218.444 148.561 216.869 148.615C213.271 148.737 210.321 145.787 210.444 142.189C210.497 140.614 211.147 139.119 212.261 138.004L230.91 119.356C232.024 118.242 233.52 117.592 235.094 117.538Z" fill="#FFCC28"/>
<path fill-rule="evenodd" clip-rule="evenodd" d="M212.13 139.903C211.964 140.07 211.832 140.268 211.74 140.484C211.345 141.417 212.523 142.214 213.242 141.5L236.58 118.31L236.216 117.946C235.983 117.93 235.747 117.926 235.508 117.937C234.806 117.967 234.12 118.119 233.479 118.378L212.13 139.903Z" fill="#FFEBAF"/>
<path fill-rule="evenodd" clip-rule="evenodd" d="M248.766 101.579C248.482 101.777 248.212 102.003 247.959 102.256L245.455 104.76C243.112 107.103 243.112 110.902 245.455 113.245L245.617 113.407C247.96 115.751 251.759 115.751 254.102 113.407L256.607 110.903C256.858 110.652 257.082 110.384 257.28 110.103L258.325 114.002C259.157 117.108 258.269 120.422 255.995 122.696L251.891 126.8C249.618 129.073 246.304 129.961 243.198 129.129L237.592 127.627C234.486 126.795 232.06 124.369 231.228 121.263L229.726 115.657C228.894 112.551 229.782 109.237 232.055 106.964L236.159 102.86C238.433 100.586 241.747 99.6979 244.853 100.53L248.766 101.579Z" fill="#FFCC28"/>
<path fill-rule="evenodd" clip-rule="evenodd" d="M242.329 100.924C240.359 101.161 238.488 102.047 237.039 103.496L233.454 107.081C231.18 109.354 230.292 112.668 231.124 115.774L232.437 120.672C232.946 122.574 234.054 124.221 235.55 125.404C235.412 125.063 235.294 124.712 235.197 124.351L233.063 116.388C232.231 113.282 233.119 109.968 235.393 107.695L241.222 101.865C241.569 101.519 241.939 101.205 242.329 100.924Z" fill="#FFEBAF"/>
<path d="M283.928 166.002C292.093 166.002 298.712 159.383 298.712 151.218C298.712 143.052 292.093 136.433 283.928 136.433C275.763 136.433 269.144 143.052 269.144 151.218C269.144 159.383 275.763 166.002 283.928 166.002Z" fill="#0C54C0"/>
<path d="M283.928 147.256C284.914 147.256 285.713 146.457 285.713 145.471C285.713 144.486 284.914 143.687 283.928 143.687C282.943 143.687 282.144 144.486 282.144 145.471C282.144 146.457 282.943 147.256 283.928 147.256Z" fill="#FFCC28"/>
<path d="M285.712 150.836C285.712 149.85 284.915 149.051 283.93 149.051C282.946 149.051 282.148 149.85 282.148 150.836V156.964C282.148 157.949 282.946 158.748 283.93 158.748C284.915 158.748 285.712 157.949 285.712 156.964V150.836Z" fill="#FFCC28"/>
</svg>
