<svg width="92" height="92" viewBox="0 0 92 92" fill="none" xmlns="http://www.w3.org/2000/svg">
<path opacity="0.15" fill-rule="evenodd" clip-rule="evenodd" d="M14.4793 45.2558C8.10058 48.2337 3.67969 54.7118 3.67969 62.2238C3.67969 72.5578 12.0462 80.9353 22.3669 80.9353C29.7023 80.9353 36.0506 76.7032 39.1093 70.5446C44.335 74.8097 51.0059 77.3672 58.2734 77.3672C75.0369 77.3672 88.6264 63.76 88.6264 46.9747C88.6264 30.1894 75.0369 16.5822 58.2734 16.5822C54.4089 16.5822 50.7131 17.3053 47.3136 18.6238C43.4478 13.6364 37.4032 10.4268 30.61 10.4268C18.9392 10.4268 9.47817 19.9001 9.47817 31.5861C9.47817 36.7973 11.3596 41.5684 14.4793 45.2558Z" fill="#0D3ECC"/>
<path d="M44.3929 81.2142C44.3998 81.0728 44.4067 80.9314 44.4067 80.7901C44.4067 76.504 40.9335 73.0283 36.6507 73.0283C36.4991 73.0283 36.3475 73.0352 36.1993 73.0421C35.6067 68.5353 31.758 65.0562 27.0927 65.0562C22.4274 65.0562 18.3444 68.7491 17.9413 73.4558C16.8456 72.9938 15.6396 72.7352 14.3751 72.7352C9.54098 72.7352 5.58203 76.4695 5.2168 81.2142H44.3963H44.3929Z" fill="#3D65D6"/>
<path d="M18.7832 39.0764C18.7832 35.2056 20.9724 31.6676 24.4365 29.9402L33.8795 25.2313C40.6236 21.8683 48.5557 21.8683 55.2997 25.2313L64.7428 29.9402C68.2068 31.6676 70.396 35.2056 70.396 39.0764V39.5705C70.396 55.8339 61.9457 70.9291 48.0819 79.4315C45.9391 80.7456 43.2401 80.7456 41.0973 79.4315C27.2335 70.9291 18.7832 55.8339 18.7832 39.5705V39.0764Z" fill="#0F68EE"/>
<path d="M20.8975 34.9791C21.5174 34.3425 22.2486 33.8042 23.0711 33.3963L41.0421 24.483C43.2774 23.3743 45.9014 23.3743 48.1366 24.483L66.1077 33.3963C66.9298 33.8041 67.6608 34.3422 68.2807 34.9785C67.5242 33.3602 66.2335 32.0096 64.5724 31.1906L48.1196 23.0785C45.8936 21.981 43.2848 21.981 41.0588 23.0785L24.6061 31.1906C22.9447 32.0097 21.6539 33.3605 20.8975 34.9791Z" fill="#3F87F3"/>
<path fill-rule="evenodd" clip-rule="evenodd" d="M34.6679 31.4373C34.6679 31.0691 34.9661 30.7705 35.3339 30.7705H56.329C60.7315 30.7705 64.5251 33.7433 64.5251 37.6664C64.5251 41.5895 60.7315 44.5623 56.329 44.5623H23.499C23.1312 44.5623 22.833 44.2637 22.833 43.8954C22.833 43.5271 23.1312 43.2286 23.499 43.2286H56.329C60.2453 43.2286 63.1932 40.6258 63.1932 37.6664C63.1932 34.7069 60.2453 32.1042 56.329 32.1042H35.3339C34.9661 32.1042 34.6679 31.8056 34.6679 31.4373Z" fill="#3F87F3"/>
<path fill-rule="evenodd" clip-rule="evenodd" d="M47.1577 72.915L41.9533 72.915C37.5508 72.915 33.7572 69.9423 33.7572 66.0192C33.7572 62.096 37.5508 59.1233 41.9533 59.1233L62.4932 59.1233C62.861 59.1233 63.1592 59.4218 63.1592 59.7901C63.1592 60.1584 62.861 60.457 62.4932 60.457L41.9533 60.457C38.037 60.457 35.0891 63.0597 35.0891 66.0192C35.0891 68.9786 38.037 71.5814 41.9533 71.5814L47.1577 71.5814C47.5255 71.5814 47.8236 71.8799 47.8236 72.2482C47.8236 72.6165 47.5255 72.915 47.1577 72.915Z" fill="#3F87F3"/>
<path d="M63.5651 38.8331C62.5607 38.8331 61.7432 38.0146 61.7432 37.0089C61.7432 36.0031 62.5607 35.1846 63.5651 35.1846C64.5695 35.1846 65.387 36.0031 65.387 37.0089C65.387 38.0146 64.5695 38.8331 63.5651 38.8331Z" fill="#0F68EE"/>
<path fill-rule="evenodd" clip-rule="evenodd" d="M63.565 35.8513C62.9284 35.8513 62.4091 36.3713 62.4091 37.0087C62.4091 37.6462 62.9284 38.1662 63.565 38.1662C64.2017 38.1662 64.721 37.6462 64.721 37.0087C64.721 36.3713 64.2017 35.8513 63.565 35.8513ZM61.0771 37.0087C61.0771 35.6347 62.1928 34.5176 63.565 34.5176C64.9373 34.5176 66.0529 35.6347 66.0529 37.0087C66.0529 38.3827 64.9373 39.4998 63.565 39.4998C62.1928 39.4998 61.0771 38.3827 61.0771 37.0087Z" fill="#3F87F3"/>
<path d="M27.444 45.8131C26.4396 45.8131 25.6221 44.9946 25.6221 43.9888C25.6221 42.9831 26.4396 42.1646 27.444 42.1646C28.4484 42.1646 29.2659 42.9831 29.2659 43.9888C29.2659 44.9946 28.4484 45.8131 27.444 45.8131Z" fill="#0F68EE"/>
<path fill-rule="evenodd" clip-rule="evenodd" d="M27.4439 42.8312C26.8073 42.8312 26.288 43.3512 26.288 43.9887C26.288 44.6261 26.8073 45.1461 27.4439 45.1461C28.0806 45.1461 28.5999 44.6261 28.5999 43.9887C28.5999 43.3512 28.0806 42.8312 27.4439 42.8312ZM24.9561 43.9887C24.9561 42.6147 26.0717 41.4976 27.4439 41.4976C28.8162 41.4976 29.9318 42.6147 29.9318 43.9887C29.9318 45.3627 28.8162 46.4798 27.4439 46.4798C26.0717 46.4798 24.9561 45.3627 24.9561 43.9887Z" fill="#3F87F3"/>
<path fill-rule="evenodd" clip-rule="evenodd" d="M25.8672 51.7957C25.8672 51.4275 26.1654 51.1289 26.5332 51.1289H63.8587V52.4626H26.5332C26.1654 52.4626 25.8672 52.164 25.8672 51.7957Z" fill="#3F87F3"/>
<path d="M34.4252 63.6459C35.4296 63.6459 36.2471 64.4644 36.2471 65.4701C36.2471 66.4759 35.4296 67.2944 34.4252 67.2944C33.4207 67.2944 32.6032 66.4759 32.6032 65.4701C32.6032 64.4644 33.4207 63.6459 34.4252 63.6459Z" fill="#0F68EE"/>
<path fill-rule="evenodd" clip-rule="evenodd" d="M34.4252 66.6277C35.0618 66.6277 35.5811 66.1077 35.5811 65.4703C35.5811 64.8328 35.0618 64.3128 34.4252 64.3128C33.7886 64.3128 33.2693 64.8328 33.2693 65.4703C33.2693 66.1077 33.7886 66.6277 34.4252 66.6277ZM36.9131 65.4703C36.9131 66.8443 35.7974 67.9614 34.4252 67.9614C33.053 67.9614 31.9373 66.8443 31.9373 65.4703C31.9373 64.0963 33.053 62.9792 34.4252 62.9792C35.7974 62.9792 36.9131 64.0963 36.9131 65.4703Z" fill="#3F87F3"/>
<path d="M62.9489 53.6212C61.9444 53.6212 61.127 52.8027 61.127 51.7969C61.127 50.7912 61.9444 49.9727 62.9489 49.9727C63.9533 49.9727 64.7708 50.7912 64.7708 51.7969C64.7708 52.8027 63.9533 53.6212 62.9489 53.6212Z" fill="#0F68EE"/>
<path fill-rule="evenodd" clip-rule="evenodd" d="M62.9488 50.6393C62.3122 50.6393 61.7929 51.1593 61.7929 51.7968C61.7929 52.4342 62.3122 52.9542 62.9488 52.9542C63.5854 52.9542 64.1048 52.4342 64.1048 51.7968C64.1048 51.1593 63.5854 50.6393 62.9488 50.6393ZM60.4609 51.7968C60.4609 50.4228 61.5766 49.3057 62.9488 49.3057C64.3211 49.3057 65.4367 50.4228 65.4367 51.7968C65.4367 53.1708 64.3211 54.2879 62.9488 54.2879C61.5766 54.2879 60.4609 53.1708 60.4609 51.7968Z" fill="#3F87F3"/>
<path fill-rule="evenodd" clip-rule="evenodd" d="M43.5556 65.0931C43.7965 65.0931 43.9186 64.9776 43.9186 64.7466C43.9186 64.631 43.7965 64.5155 43.6777 64.4H43.3147C38.9445 63.5881 36.03 59.4161 36.8816 55.2441C37.1225 54.3166 37.489 53.2736 38.0963 52.4617C38.2185 52.2306 38.4594 52.2306 38.7036 52.3462L44.6515 58.0232H45.1367L51.0845 52.3462C51.3254 52.1151 51.4476 52.1151 51.5697 52.3462C53.6326 55.3596 53.2696 59.1851 50.8402 61.852H50.7181C50.7181 61.9675 50.8402 62.1985 51.0811 62.1985H51.322C55.8143 60.4591 58.8476 56.1716 58.8476 51.5342C58.8476 47.3588 56.9068 43.4213 53.5071 40.8698C53.3849 40.7543 53.2628 40.7543 53.144 40.8698L45.252 48.4018C45.1299 48.5173 45.0111 48.6328 44.7669 48.5173C44.7669 48.5173 44.6447 48.5173 44.6447 48.4018L36.7527 40.8698C36.6306 40.7543 36.5118 40.7543 36.3897 40.8698C32.8712 43.4179 30.8049 47.4777 30.927 51.6497C31.0492 58.6041 36.3897 64.4 43.5522 65.0931" fill="#0C54C0"/>
<path fill-rule="evenodd" clip-rule="evenodd" d="M43.5556 62.6414C43.7965 62.6414 43.9186 62.5259 43.9186 62.2949C43.9186 62.1794 43.7965 62.0639 43.6777 61.9484H43.3147C38.9445 61.1364 36.03 56.9644 36.8816 52.7925C37.1225 51.865 37.489 50.822 38.0963 50.01C38.2185 49.779 38.4594 49.779 38.7036 49.8945L44.6515 55.5715H45.1367L51.0845 49.8945C51.3254 49.6635 51.4476 49.6635 51.5697 49.8945C53.6326 52.908 53.2696 56.7334 50.8402 59.4003H50.7181C50.7181 59.5158 50.8402 59.7469 51.0811 59.7469H51.322C55.8143 58.0074 58.8476 53.7199 58.8476 49.0825C58.8476 44.9072 56.9068 40.9696 53.5071 38.4182C53.3849 38.3027 53.2628 38.3027 53.144 38.4182L45.252 45.9501C45.1299 46.0657 45.0111 46.1812 44.7669 46.0657C44.7669 46.0657 44.6447 46.0657 44.6447 45.9501L36.7527 38.4182C36.6306 38.3027 36.5118 38.3027 36.3897 38.4182C32.8712 40.9662 30.8049 45.0261 30.927 49.198C31.0492 56.1525 36.3897 61.9484 43.5522 62.6414" fill="white"/>
<path d="M87.4212 81.2109C87.4315 81.0157 87.4385 80.8205 87.4385 80.6218C87.4385 74.7036 82.6747 69.9077 76.7961 69.9077C76.5884 69.9077 76.3806 69.9147 76.1764 69.9287C75.3628 63.7072 70.0797 58.9009 63.6749 58.9009C57.2701 58.9009 51.6685 64 51.1145 70.5003C49.6085 69.8624 47.9537 69.5069 46.2192 69.5069C39.5859 69.5069 34.1504 74.6653 33.6484 81.2144H87.4212V81.2109Z" fill="#7A95E3"/>
<path d="M65.3206 12.1134C65.3206 13.0449 64.5655 13.8001 63.6339 13.8001C62.7024 13.8001 61.9473 13.0449 61.9473 12.1134C61.9473 11.1819 62.7024 10.4268 63.6339 10.4268C64.5655 10.4268 65.3206 11.1819 65.3206 12.1134Z" fill="#FFCC28"/>
<path d="M15.3333 51.9801C15.3333 52.9116 14.5781 53.6668 13.6466 53.6668C12.7151 53.6668 11.96 52.9116 11.96 51.9801C11.96 51.0486 12.7151 50.2935 13.6466 50.2935C14.5781 50.2935 15.3333 51.0486 15.3333 51.9801Z" fill="#43BC38"/>
<path d="M75.4407 40.6334C75.4407 41.565 74.6856 42.3201 73.7541 42.3201C72.8225 42.3201 72.0674 41.565 72.0674 40.6334C72.0674 39.7019 72.8225 38.9468 73.7541 38.9468C74.6856 38.9468 75.4407 39.7019 75.4407 40.6334Z" fill="#BA28EB"/>
<path d="M83.1067 5.67348C83.1067 6.605 82.3516 7.36015 81.4201 7.36015C80.4885 7.36015 79.7334 6.605 79.7334 5.67348C79.7334 4.74196 80.4885 3.98682 81.4201 3.98682C82.3516 3.98682 83.1067 4.74196 83.1067 5.67348Z" fill="#0F68EE"/>
<path d="M51.2139 10.8716L53.9601 9.50672L57.5087 16.6468L54.7625 18.0117L51.2139 10.8716Z" fill="#43BC38"/>
<path d="M2.96191 40.4624L5.17559 38.3401L10.6935 44.0957L8.47984 46.218L2.96191 40.4624Z" fill="#F06666"/>
<path d="M76.6035 52.7622L75.5437 49.8845L83.0257 47.129L84.0856 50.0067L76.6035 52.7622Z" fill="#9894EB"/>
<path d="M25.335 15.9468L28.2672 16.8449L25.9321 24.4686L22.9999 23.5705L25.335 15.9468Z" fill="#BA28EB"/>
<path fill-rule="evenodd" clip-rule="evenodd" d="M73.7882 15.1809L74.2031 16.3352L72.3215 17.0115L73.2053 19.4703L70.7465 20.3541L71.6302 22.8128L68.5943 23.904L68.1794 22.7497L70.061 22.0734L69.1772 19.6146L71.636 18.7309L70.7522 16.2721L73.7882 15.1809Z" fill="#F06666"/>
<path fill-rule="evenodd" clip-rule="evenodd" d="M10.19 17.4498L11.215 18.1237L10.1167 19.7944L12.2999 21.2297L10.8647 23.413L13.0479 24.8482L11.2757 27.544L10.2507 26.8701L11.3491 25.1994L9.16582 23.7641L10.6011 21.5809L8.41784 20.1456L10.19 17.4498Z" fill="#9894EB"/>
<path fill-rule="evenodd" clip-rule="evenodd" d="M29.1624 1.86398L30.3881 1.81626L30.4659 3.81419L33.0767 3.71253L33.1783 6.32333L35.7891 6.22167L35.9146 9.44534L34.6889 9.49307L34.6111 7.49514L32.0003 7.59679L31.8987 4.98599L29.2879 5.08765L29.1624 1.86398Z" fill="#FFCC28"/>
</svg>
