<svg width="24" height="24" viewBox="0 0 24 24" fill="none" xmlns="http://www.w3.org/2000/svg">
<g clip-path="url(#clip0_1496_2219)">
<path fill-rule="evenodd" clip-rule="evenodd" d="M12 2C17.5228 2 22 6.47715 22 12C22 17.5228 17.5228 22 12 22C6.47715 22 2 17.5228 2 12C2 6.47715 6.47715 2 12 2ZM12 4C7.58172 4 4 7.58172 4 12C4 16.4183 7.58172 20 12 20C16.4183 20 20 16.4183 20 12C20 7.58172 16.4183 4 12 4ZM9.17157 7.75736L12 10.586L14.8284 7.75736C15.219 7.36684 15.8521 7.36684 16.2426 7.75736C16.6332 8.14788 16.6332 8.78105 16.2426 9.17157L13.414 12L16.2426 14.8284C16.6332 15.219 16.6332 15.8521 16.2426 16.2426C15.8521 16.6332 15.219 16.6332 14.8284 16.2426L12 13.414L9.17157 16.2426C8.78105 16.6332 8.14788 16.6332 7.75736 16.2426C7.36684 15.8521 7.36684 15.219 7.75736 14.8284L10.586 12L7.75736 9.17157C7.36684 8.78105 7.36684 8.14788 7.75736 7.75736C8.14788 7.36684 8.78105 7.36684 9.17157 7.75736Z" fill="#E60000"/>
</g>
<defs>
<clipPath id="clip0_1496_2219">
<rect width="24" height="24" fill="white"/>
</clipPath>
</defs>
</svg>
