<svg width="86" height="85" viewBox="0 0 86 85" fill="none" xmlns="http://www.w3.org/2000/svg">
<path opacity="0.15" fill-rule="evenodd" clip-rule="evenodd" d="M71.0653 42.8659C74.7819 38.8249 77.0512 33.4319 77.0512 27.5088C77.0512 14.9763 66.8916 4.81665 54.359 4.81665C44.9307 4.81665 36.8454 10.5667 33.4185 18.7512C32.8389 18.7173 32.2549 18.7 31.6669 18.7C15.3929 18.7 2.2002 31.8927 2.2002 48.1667C2.2002 64.4407 15.3929 77.6334 31.6669 77.6334C40.058 77.6334 47.63 74.1259 52.9966 68.4972C55.8706 71.3493 59.828 73.1114 64.1969 73.1114C72.9786 73.1114 80.0976 65.9924 80.0976 57.2107C80.0976 50.8889 76.4083 45.4288 71.0653 42.8659Z" fill="#0D3ECC"/>
<path fill-rule="evenodd" clip-rule="evenodd" d="M37.9223 14.0725C37.5064 14.1487 37.1522 14.4288 37.0188 14.8301V14.8301C35.7785 18.5598 31.5202 20.3236 28.0059 18.5633V18.5633C27.6294 18.3747 27.1828 18.4268 26.8361 18.6658C23.9475 20.6575 21.441 23.1639 19.4492 26.0524C19.2101 26.3992 19.158 26.846 19.3467 27.2226V27.2226C21.107 30.7368 19.3431 34.9952 15.6134 36.2354V36.2354C15.2118 36.369 14.9314 36.7235 14.8551 37.1398C14.5449 38.8322 14.3828 40.5764 14.3828 42.3584C14.3828 44.1405 14.5449 45.8847 14.8551 47.5771C14.9315 47.9934 15.2118 48.3479 15.6134 48.4815V48.4815C19.3431 49.7217 21.107 53.9801 19.3467 57.4943V57.4943C19.158 57.8709 19.2101 58.3177 19.4492 58.6645C21.4411 61.553 23.9475 64.0594 26.8362 66.0511C27.1828 66.2901 27.6294 66.3422 28.0059 66.1536V66.1536C31.5202 64.3933 35.7785 66.1571 37.0188 69.8868V69.8868C37.1522 70.2881 37.5064 70.5682 37.9223 70.6444C39.6147 70.9547 41.359 71.1168 43.1411 71.1168C44.9239 71.1168 46.6688 70.9546 48.3618 70.6441C48.7775 70.5678 49.1314 70.2879 49.2648 69.8868V69.8868C50.5051 66.1571 54.7634 64.3933 58.2777 66.1536V66.1536C58.6536 66.3419 59.0997 66.29 59.4459 66.0513C62.3354 64.059 64.8425 61.5518 66.8347 58.6621C67.0733 58.3161 67.1252 57.8702 66.9369 57.4943V57.4943C65.1766 53.9801 66.9405 49.7217 70.6702 48.4815V48.4815C71.0708 48.3482 71.3506 47.9946 71.4268 47.5793C71.7372 45.8862 71.8995 44.1412 71.8995 42.3584C71.8995 40.5756 71.7372 38.8307 71.4268 37.1376C71.3506 36.7223 71.0709 36.3687 70.6702 36.2354V36.2354C66.9405 34.9952 65.1766 30.7368 66.9369 27.2226V27.2226C67.1252 26.8467 67.0733 26.4008 66.8347 26.0547C64.8425 23.1651 62.3354 20.6579 59.4459 18.6656C59.0997 18.4269 58.6537 18.375 58.2777 18.5633V18.5633C54.7634 20.3236 50.5051 18.5597 49.2648 14.83V14.83C49.1314 14.429 48.7774 14.149 48.3617 14.0728C46.6687 13.7623 44.9239 13.6001 43.1411 13.6001C41.359 13.6001 39.6148 13.7622 37.9223 14.0725Z" fill="#0F68EE"/>
<path fill-rule="evenodd" clip-rule="evenodd" d="M43.2834 62.05C54.0806 62.05 62.8334 53.2971 62.8334 42.5C62.8334 31.7028 54.0806 22.95 43.2834 22.95C32.4862 22.95 23.7334 31.7028 23.7334 42.5C23.7334 53.2971 32.4862 62.05 43.2834 62.05ZM43.2838 54.1167C49.6995 54.1167 54.9004 48.9157 54.9004 42.5C54.9004 36.0843 49.6995 30.8834 43.2838 30.8834C36.8681 30.8834 31.6671 36.0843 31.6671 42.5C31.6671 48.9157 36.8681 54.1167 43.2838 54.1167Z" fill="#0C54C0"/>
<path fill-rule="evenodd" clip-rule="evenodd" d="M62.8153 43.35C62.8273 43.0681 62.8334 42.7848 62.8334 42.5C62.8334 31.7028 54.0806 22.95 43.2834 22.95C32.4862 22.95 23.7334 31.7028 23.7334 42.5C23.7334 42.7848 23.7395 43.0681 23.7515 43.35C24.1966 32.9472 32.771 24.65 43.2834 24.65C53.7958 24.65 62.3702 32.9472 62.8153 43.35Z" fill="#3F87F3"/>
<path fill-rule="evenodd" clip-rule="evenodd" d="M31.961 42.1058C31.9541 42.2691 31.9505 42.4334 31.9505 42.5985C31.9505 48.8578 37.0246 53.9319 43.2839 53.9319C49.5431 53.9319 54.6172 48.8578 54.6172 42.5986C54.6172 42.4334 54.6137 42.2691 54.6067 42.1058C54.3487 48.1364 49.378 52.9463 43.2839 52.9463C37.1897 52.9463 32.219 48.1364 31.961 42.1058Z" fill="#3F87F3"/>
<path fill-rule="evenodd" clip-rule="evenodd" d="M46.5501 36.4943C46.4118 36.595 46.2796 36.7077 46.1549 36.8324L44.8867 38.1006C43.5939 39.3934 43.5939 41.4894 44.8867 42.7822C46.1795 44.075 48.2756 44.075 49.5684 42.7822L50.8365 41.5141C50.9683 41.3823 51.0866 41.2422 51.1915 41.0955C51.2622 41.2925 51.3251 41.4933 51.3799 41.6976C52.0821 44.3182 51.3329 47.1144 49.4144 49.0328C47.496 50.9512 44.6999 51.7004 42.0793 50.9982C39.4587 50.296 37.4118 48.2491 36.7096 45.6285C36.0074 43.0079 36.7567 40.2118 38.6751 38.2934C40.5935 36.375 43.3896 35.6257 46.0102 36.3279C46.193 36.3769 46.3731 36.4325 46.5501 36.4943Z" fill="#0C54C0"/>
<path d="M39.1263 45.0624C41.0745 44.9959 42.6716 46.5931 42.6052 48.5413V48.5413C42.5761 49.3939 42.2244 50.2036 41.6212 50.8068L31.5247 60.9032C30.9215 61.5065 30.1118 61.8581 29.2592 61.8872V61.8872C27.311 61.9536 25.7139 60.3565 25.7803 58.4083V58.4083C25.8094 57.5557 26.1611 56.746 26.7643 56.1428L36.8607 46.0463C37.4639 45.4431 38.2737 45.0914 39.1263 45.0624V45.0624Z" fill="#0C54C0"/>
<path d="M38.4474 43.6036C40.3956 43.5372 41.9928 45.1343 41.9264 47.0826V47.0826C41.8973 47.9351 41.5456 48.7449 40.9424 49.3481L30.8459 59.4445C30.2427 60.0477 29.433 60.3994 28.5804 60.4285V60.4285C26.6322 60.4949 25.0351 58.8978 25.1015 56.9496V56.9496C25.1306 56.097 25.4823 55.2873 26.0855 54.6841L36.1819 44.5876C36.7851 43.9844 37.5949 43.6327 38.4474 43.6036V43.6036Z" fill="#FFCC28"/>
<path fill-rule="evenodd" clip-rule="evenodd" d="M26.0174 55.712C25.9277 55.8024 25.8561 55.9091 25.8064 56.0264C25.5926 56.5315 26.2304 56.9628 26.6195 56.5761L39.2545 44.0214L39.0577 43.8245C38.9316 43.8155 38.8037 43.8137 38.6742 43.8193C38.294 43.8358 37.923 43.9176 37.5763 44.0582L26.0174 55.712Z" fill="#FFEBAF"/>
<path fill-rule="evenodd" clip-rule="evenodd" d="M45.8358 34.9854C45.6719 35.0983 45.5158 35.2277 45.37 35.3735L44.1019 36.6417C42.8091 37.9345 42.8091 40.0305 44.1019 41.3233C45.3947 42.6161 47.4907 42.6161 48.7835 41.3233L50.0517 40.0552C50.1965 39.9103 50.3251 39.7554 50.4375 39.5927C50.5049 39.7823 50.5651 39.9754 50.6177 40.1718C51.3199 42.7924 50.5706 45.5885 48.6522 47.5069C46.7338 49.4253 43.9377 50.1745 41.3171 49.4723C38.6965 48.7702 36.6496 46.7232 35.9474 44.1027C35.2452 41.4821 35.9944 38.6859 37.9128 36.7675C39.8313 34.8491 42.6274 34.0999 45.248 34.8021C45.4474 34.8555 45.6434 34.9167 45.8358 34.9854Z" fill="#FFCC28"/>
<path fill-rule="evenodd" clip-rule="evenodd" d="M39.1098 47.7442C38.5817 46.9576 38.1779 46.0793 37.9252 45.1365C37.1173 42.1211 37.9794 38.9037 40.1868 36.6962C40.9519 35.9311 41.8384 35.3276 42.7957 34.8993C41.2072 35.0896 39.6986 35.8036 38.5308 36.9714C36.6993 38.8029 35.9841 41.4724 36.6544 43.9743C37.0591 45.4844 37.9315 46.7951 39.1098 47.7442Z" fill="#FFEBAF"/>
<path d="M64.887 69.8416C69.3076 69.8416 72.8911 66.2581 72.8911 61.8375C72.8911 57.4169 69.3076 53.8333 64.887 53.8333C60.4664 53.8333 56.8828 57.4169 56.8828 61.8375C56.8828 66.2581 60.4664 69.8416 64.887 69.8416Z" fill="#0C54C0"/>
<path d="M64.8871 59.6928C65.4207 59.6928 65.8532 59.2602 65.8532 58.7266C65.8532 58.193 65.4207 57.7604 64.8871 57.7604C64.3535 57.7604 63.9209 58.193 63.9209 58.7266C63.9209 59.2602 64.3535 59.6928 64.8871 59.6928Z" fill="#FFCC28"/>
<path d="M65.8533 61.6307C65.8533 61.0971 65.4214 60.6646 64.8886 60.6646C64.3558 60.6646 63.9238 61.0971 63.9238 61.6307V64.9486C63.9238 65.4822 64.3558 65.9147 64.8886 65.9147C65.4214 65.9147 65.8533 65.4822 65.8533 64.9486V61.6307Z" fill="#FFCC28"/>
</svg>
