<svg width="24" height="24" viewBox="0 0 24 24" fill="none" xmlns="http://www.w3.org/2000/svg">
<g clip-path="url(#clip0_1777_3818)">
<path fill-rule="evenodd" clip-rule="evenodd" d="M22 3.79224L11.9908 1L2 3.79268L2.0168 5.9471L2.02812 6.59167C2.05135 7.81219 2.09627 9.00728 2.16136 10.1081L2.21211 10.8775L2.26929 11.5927C2.28946 11.822 2.31076 12.0423 2.33325 12.2535L2.40433 12.86C2.50402 13.6324 2.62364 14.2597 2.76691 14.7415C3.42643 16.9479 4.90719 18.8528 7.06348 20.4321C8.02481 21.1298 9.04435 21.7258 10.1144 22.2166C10.5234 22.4063 10.9475 22.5824 11.3782 22.7409L12.082 23L12.7837 22.7354C13.2077 22.5756 13.625 22.3982 14.0345 22.2038C15.0837 21.7101 16.0874 21.1083 17.0245 20.4105C19.131 18.8292 20.5771 16.9317 21.2303 14.7425C21.3383 14.3811 21.4327 13.9377 21.5153 13.4126L21.594 12.8603L21.6651 12.2536C21.6876 12.0423 21.7088 11.822 21.7289 11.5926L21.7859 10.8773C21.7949 10.7536 21.8035 10.6276 21.8119 10.4993L21.8364 10.1078C21.9012 9.02603 21.9459 7.83661 21.9705 6.58885L21.9815 5.94698L22 3.79224ZM4.00793 5.28929L11.9913 3.05776L19.9906 5.28929C19.9874 5.70959 19.9815 6.12987 19.973 6.55009C19.9499 7.7242 19.9075 8.8975 19.842 9.99138L19.7963 10.6912C19.7882 10.8041 19.7799 10.9152 19.7713 11.0243L19.717 11.6551L19.6569 12.2369L19.5911 12.7671L19.5194 13.2433C19.4572 13.6168 19.389 13.9314 19.3146 14.1806C18.7751 15.9883 17.5453 17.5352 15.8247 18.8268C14.9946 19.4449 14.1058 19.9777 13.1716 20.4174C12.812 20.5881 12.4457 20.7438 12.0736 20.8841C11.6941 20.7444 11.3204 20.5892 10.9532 20.419C10.0034 19.9833 9.0982 19.4541 8.25054 18.8389C6.48365 17.5449 5.22501 15.994 4.6832 14.1814C4.57936 13.8322 4.48746 13.3549 4.40728 12.7674L4.34142 12.2371L4.28129 11.6554C4.27174 11.5543 4.26243 11.4512 4.25335 11.346L4.20174 10.6918L4.15577 9.9922C4.09104 8.8975 4.04789 7.72501 4.02551 6.55009L4.01444 5.91972L4.00793 5.28929ZM9.42874 9C9.80437 7.80676 10.1981 7.05879 10.5493 6.67572C10.6618 6.55292 10.7486 6.49222 10.803 6.46367C10.8525 6.43772 10.8759 6.4375 10.8824 6.4375C10.8884 6.4375 11.024 6.4386 11.2925 6.70711L11.9996 7.41422L12.7067 6.70711C12.9752 6.4386 13.1109 6.4375 13.1168 6.4375C13.1234 6.4375 13.1467 6.43772 13.1962 6.46367C13.2506 6.49222 13.3374 6.55292 13.45 6.67572C13.8011 7.05879 14.1949 7.80676 14.5705 9H9.42874ZM7.34269 9C7.80097 7.3573 8.37034 6.09297 9.07497 5.32428C9.53528 4.82212 10.1428 4.4375 10.8824 4.4375C11.292 4.4375 11.6655 4.5557 11.9996 4.74478C12.3337 4.5557 12.7072 4.4375 13.1168 4.4375C13.8565 4.4375 14.464 4.82212 14.9243 5.32428C15.6289 6.09297 16.1983 7.3573 16.6566 9H18C18.5523 9 19 9.44772 19 10C19 10.5523 18.5523 11 18 11H6C5.44772 11 5 10.5523 5 10C5 9.44772 5.44772 9 6 9H7.34269ZM17 12H7C6.44772 12 6 12.4477 6 13V15C6 16.1046 6.89543 17 8 17H9.66059C10.4335 17 11.0931 16.4412 11.2202 15.6788C11.367 14.798 12.633 14.798 12.7798 15.6788C12.9069 16.4412 13.5665 17 14.3394 17H16C17.1046 17 18 16.1046 18 15V13C18 12.4477 17.5523 12 17 12ZM10 14C10 14.5523 9.55228 15 9 15C8.44772 15 8 14.5523 8 14H10ZM15 15C15.5523 15 16 14.5523 16 14H14C14 14.5523 14.4477 15 15 15Z" fill="white" fill-opacity="0.7"/>
</g>
<defs>
<clipPath id="clip0_1777_3818">
<rect width="24" height="24" fill="white"/>
</clipPath>
</defs>
</svg>
