<svg width="20" height="22" viewBox="0 0 20 22" fill="none" xmlns="http://www.w3.org/2000/svg">
<path fill-rule="evenodd" clip-rule="evenodd" d="M9.99076 0L20 2.79224L19.9815 4.94698L19.9705 5.58885C19.9459 6.83661 19.9012 8.02603 19.8364 9.10779L19.8119 9.49932C19.8035 9.62757 19.7949 9.75357 19.7859 9.8773L19.7289 10.5926C19.7088 10.822 19.6876 11.0423 19.6651 11.2536L19.594 11.8603L19.5153 12.4126C19.4327 12.9377 19.3383 13.3811 19.2303 13.7425C18.5771 15.9317 17.131 17.8292 15.0245 19.4105C14.0874 20.1083 13.0837 20.7101 12.0345 21.2038C11.625 21.3982 11.2077 21.5756 10.7837 21.7354L10.082 22L9.37817 21.7409C8.9475 21.5824 8.52337 21.4063 8.11436 21.2166C7.04435 20.7258 6.02481 20.1298 5.06348 19.4321C2.90719 17.8528 1.42643 15.9479 0.76691 13.7415C0.623641 13.2597 0.504021 12.6324 0.404334 11.86L0.333248 11.2535C0.31076 11.0423 0.289459 10.822 0.269289 10.5927L0.212108 9.87754L0.161358 9.10811C0.0962655 8.00728 0.0513548 6.81219 0.028115 5.59167L0.0167968 4.9471L0 2.79268L9.99076 0ZM9.99129 2.05776L2.00793 4.28929L2.01444 4.91972L2.02551 5.55009C2.04789 6.72501 2.09104 7.8975 2.15577 8.9922L2.20174 9.69175L2.25335 10.346C2.26243 10.4512 2.27174 10.5543 2.28129 10.6554L2.34142 11.2371L2.40728 11.7674C2.48746 12.3549 2.57936 12.8322 2.6832 13.1814C3.22501 14.994 4.48365 16.5449 6.25054 17.8389C7.0982 18.4541 8.00344 18.9833 8.95321 19.419C9.32036 19.5892 9.69412 19.7444 10.0736 19.8841C10.4457 19.7438 10.812 19.5881 11.1716 19.4174C12.1058 18.9777 12.9946 18.4449 13.8247 17.8268C15.5453 16.5352 16.7751 14.9883 17.3146 13.1806C17.389 12.9314 17.4572 12.6168 17.5194 12.2433L17.5911 11.7671L17.6569 11.2369L17.717 10.6551L17.7713 10.0243C17.7799 9.91518 17.7882 9.80414 17.7963 9.69121L17.842 8.99138C17.9075 7.8975 17.9499 6.7242 17.973 5.55009C17.9815 5.12987 17.9874 4.70959 17.9906 4.28929L9.99129 2.05776ZM11.1937 12.5126C10.925 13.4108 10.5187 14.2462 10 15C9.48125 14.2462 9.075 13.4108 8.80625 12.5126H11.1937ZM7.51876 12.5126C7.71876 13.2977 8.00626 14.0515 8.38126 14.7487C7.23126 14.353 6.27501 13.5553 5.67501 12.5126H7.51876ZM14.325 12.5126C13.725 13.549 12.7687 14.353 11.6187 14.7487C11.9937 14.0515 12.2812 13.2977 12.4812 12.5126H14.325ZM7.27501 8.74372C7.22501 9.15829 7.18751 9.57286 7.18751 10C7.18751 10.4271 7.22501 10.8417 7.27501 11.2563H5.16252C5.06252 10.8543 5.00002 10.4334 5.00002 10C5.00002 9.56658 5.06252 9.14573 5.16252 8.74372H7.27501ZM11.4625 8.74372C11.5187 9.15201 11.5625 9.57286 11.5625 10C11.5625 10.4271 11.5187 10.8417 11.4625 11.2563H8.53751C8.48126 10.8417 8.4375 10.4271 8.4375 10C8.4375 9.57286 8.48126 9.15201 8.53751 8.74372H11.4625ZM14.8375 8.74372C14.9375 9.14573 15 9.56658 15 10C15 10.4334 14.9375 10.8543 14.8375 11.2563H12.725C12.775 10.8417 12.8125 10.4271 12.8125 10C12.8125 9.57286 12.775 9.15829 12.725 8.74372H14.8375ZM11.6187 5.25126C12.7687 5.64699 13.725 6.451 14.325 7.48744H12.4812C12.2812 6.70226 11.9937 5.94849 11.6187 5.25126ZM10 5C10.5187 5.75377 10.925 6.5892 11.1937 7.48744H8.80625C9.075 6.5892 9.48125 5.75377 10 5ZM8.38126 5.25126C8.00626 5.94849 7.71876 6.70226 7.51876 7.48744H5.67501C6.27501 6.44472 7.23126 5.64699 8.38126 5.25126Z" fill="white" fill-opacity="0.7"/>
</svg>
